<svg xmlns="http://www.w3.org/2000/svg" version="1.1" xmlns:xlink="http://www.w3.org/1999/xlink" xmlns:svgjs="http://svgjs.dev/svgjs" width="2000" height="459" viewBox="0 0 2000 459"><g transform="matrix(1,0,0,1,-1.2121212121212466,-0.926959841258622)"><svg viewBox="0 0 396 91" data-background-color="#fafafa" preserveAspectRatio="xMidYMid meet" height="459" width="2000" xmlns="http://www.w3.org/2000/svg" xmlns:xlink="http://www.w3.org/1999/xlink"><g id="tight-bounds" transform="matrix(1,0,0,1,0.2400000000000091,0.1837763519706641)"><svg viewBox="0 0 395.52 90.63244729605866" height="90.63244729605866" width="395.52"><g><svg viewBox="0 0 395.52 90.63244729605866" height="90.63244729605866" width="395.52"><g><svg viewBox="0 0 395.52 90.63244729605866" height="90.63244729605866" width="395.52"><g><svg viewBox="0 0 395.52 90.63244729605866" height="90.63244729605866" width="395.52"><g><svg viewBox="0 0 395.52 90.63244729605866" height="90.63244729605866" width="395.52"><g id="textblocktransform"><svg viewBox="0 0 395.52 90.63244729605866" height="90.63244729605866" width="395.52" id="textblock"><g><svg viewBox="0 0 395.52 90.63244729605866" height="90.63244729605866" width="395.52"><g transform="matrix(1,0,0,1,0,0)"><svg width="395.52" viewBox="0.45 -37.5 218.18 50" height="90.63244729605866" data-palette-color="#130912"><path d="M23.85-20.35L26.75-33.95Q24.7-32.85 22.4-29.83 20.1-26.8 17.75-22.1L17.75-22.1Q19.55-21.75 21.08-21.3 22.6-20.85 23.85-20.35L23.85-20.35ZM30.65-37.5L30.65-37.5Q31.7-37.5 32.75-37.33 33.8-37.15 34.6-36.8L34.6-36.8 26.75 0 19.55 0 23.4-18.15Q21.65-18.95 20.1-19.38 18.55-19.8 16.7-19.95L16.7-19.95Q13.85-13.75 12.03-7.35 10.2-0.95 10.2 2.9L10.2 2.9Q10.2 3.8 10.38 4.48 10.55 5.15 10.9 5.7L10.9 5.7Q7.1 5.7 5.65 4.4 4.2 3.1 4.2 0.4L4.2 0.4Q4.2-2.95 6.23-8.55 8.25-14.15 11.55-19.95L11.55-19.95Q9-19.8 7.58-19.15 6.15-18.5 5.7-17.35L5.7-17.35Q5.9-17.35 6.13-16.82 6.35-16.3 6.35-15.8L6.35-15.8Q6.35-14.95 5.55-14.4 4.75-13.85 3.55-13.85L3.55-13.85Q2.15-13.85 1.3-14.63 0.45-15.4 0.45-16.75L0.45-16.75Q0.45-19.35 3.38-21.13 6.3-22.9 10.65-22.9L10.65-22.9Q11.15-22.9 11.8-22.88 12.45-22.85 13.25-22.75L13.25-22.75Q17.65-29.7 22.2-33.6 26.75-37.5 30.65-37.5ZM41.75-4.55L41.75-4.55Q43.05-4.55 44.07-5.68 45.1-6.8 45.75-8.95L45.75-8.95 49.15-25 56.35-25 52.75-8Q52.65-7.55 52.6-7.18 52.55-6.8 52.55-6.4L52.55-6.4Q52.55-5.4 53.02-4.98 53.5-4.55 54.6-4.55L54.6-4.55Q55.9-4.55 56.95-5.7 58-6.85 58.65-8.95L58.65-8.95 60.75-8.95Q59.15-4.35 56.6-2.02 54.05 0.3 50.7 0.3L50.7 0.3Q48.55 0.3 47.25-0.93 45.95-2.15 45.75-4.45L45.75-4.45Q44.3-2.05 42.47-0.88 40.65 0.3 38.35 0.3L38.35 0.3Q35.85 0.3 34.42-1.28 33-2.85 33-5.7L33-5.7Q33-6.35 33.1-7.18 33.2-8 33.4-8.95L33.4-8.95 36.8-25 44-25 40.4-8Q40.3-7.6 40.27-7.28 40.25-6.95 40.25-6.6L40.25-6.6Q40.25-5.6 40.62-5.08 41-4.55 41.75-4.55ZM67.95-19L63.95 0 56.75 0 62.05-25 69.25-25 68.59-21.9Q70.8-23.75 72.07-24.38 73.34-25 74.65-25L74.65-25Q76.2-25 77.15-23.93 78.09-22.85 78.09-21.25L78.09-21.25Q78.09-19.7 77.09-18.65 76.09-17.6 74.5-17.6L74.5-17.6Q73.65-17.6 73.17-18 72.7-18.4 72.5-19.65L72.5-19.65Q72.34-20.45 72.15-20.68 71.95-20.9 71.59-20.9L71.59-20.9Q70.75-20.9 70-20.55 69.25-20.2 67.95-19L67.95-19ZM92.84-22.7L92.84-22.7 92.84-22.35 93.39-25 100.59-25 96.99-8Q96.89-7.55 96.84-7.18 96.79-6.8 96.79-6.4L96.79-6.4Q96.79-5.3 97.29-4.78 97.79-4.25 98.84-4.25L98.84-4.25Q100.14-4.25 101.19-5.48 102.24-6.7 102.89-8.95L102.89-8.95 104.99-8.95Q103.39-4.35 100.84-2.02 98.29 0.3 94.94 0.3L94.94 0.3Q92.79 0.3 91.52-0.9 90.24-2.1 90.04-4.3L90.04-4.3Q88.49-2 86.62-0.85 84.74 0.3 82.59 0.3L82.59 0.3Q79.49 0.3 77.72-1.8 75.94-3.9 75.94-7.75L75.94-7.75Q75.94-10.55 76.79-13.6 77.64-16.65 79.14-19.15L79.14-19.15Q80.99-22.1 83.44-23.68 85.89-25.25 88.79-25.25L88.79-25.25Q90.74-25.25 91.79-24.58 92.84-23.9 92.84-22.7ZM89.99-8.95L92.39-20.25Q92.39-21 91.84-21.58 91.29-22.15 90.34-22.15L90.34-22.15Q87.59-22.15 85.47-17.55 83.34-12.95 83.34-8.45L83.34-8.45Q83.34-6.5 83.89-5.53 84.44-4.55 85.84-4.55L85.84-4.55Q87.14-4.55 88.37-5.8 89.59-7.05 89.99-8.95L89.99-8.95ZM137.59-20.35L140.49-33.95Q138.44-32.85 136.14-29.83 133.84-26.8 131.49-22.1L131.49-22.1Q133.29-21.75 134.81-21.3 136.34-20.85 137.59-20.35L137.59-20.35ZM144.39-37.5L144.39-37.5Q145.44-37.5 146.49-37.33 147.54-37.15 148.34-36.8L148.34-36.8 140.49 0 133.29 0 137.14-18.15Q135.39-18.95 133.84-19.38 132.29-19.8 130.44-19.95L130.44-19.95Q127.59-13.75 125.76-7.35 123.94-0.95 123.94 2.9L123.94 2.9Q123.94 3.8 124.11 4.48 124.29 5.15 124.64 5.7L124.64 5.7Q120.84 5.7 119.39 4.4 117.94 3.1 117.94 0.4L117.94 0.4Q117.94-2.95 119.96-8.55 121.99-14.15 125.29-19.95L125.29-19.95Q122.74-19.8 121.31-19.15 119.89-18.5 119.44-17.35L119.44-17.35Q119.64-17.35 119.86-16.82 120.09-16.3 120.09-15.8L120.09-15.8Q120.09-14.95 119.29-14.4 118.49-13.85 117.29-13.85L117.29-13.85Q115.89-13.85 115.04-14.63 114.19-15.4 114.19-16.75L114.19-16.75Q114.19-19.35 117.11-21.13 120.04-22.9 124.39-22.9L124.39-22.9Q124.89-22.9 125.54-22.88 126.19-22.85 126.99-22.75L126.99-22.75Q131.39-29.7 135.94-33.6 140.49-37.5 144.39-37.5ZM146.74-5.7L146.74-5.7Q146.74-6.35 146.84-7.18 146.94-8 147.14-8.95L147.14-8.95 152.49-34 159.89-35 154.14-8Q154.04-7.55 153.99-7.18 153.94-6.8 153.94-6.4L153.94-6.4Q153.94-5.4 154.41-4.98 154.89-4.55 155.99-4.55L155.99-4.55Q157.39-4.55 158.64-5.78 159.89-7 160.49-8.95L160.49-8.95 162.59-8.95Q160.99-4.4 158.29-2.05 155.59 0.3 152.09 0.3L152.09 0.3Q149.59 0.3 148.16-1.28 146.74-2.85 146.74-5.7ZM160.08-5.7L160.08-5.7Q160.08-6.35 160.18-7.18 160.28-8 160.48-8.95L160.48-8.95 165.83-34 173.23-35 167.48-8Q167.38-7.55 167.33-7.18 167.28-6.8 167.28-6.4L167.28-6.4Q167.28-5.4 167.76-4.98 168.23-4.55 169.33-4.55L169.33-4.55Q170.73-4.55 171.98-5.78 173.23-7 173.83-8.95L173.83-8.95 175.93-8.95Q174.33-4.4 171.63-2.05 168.93 0.3 165.43 0.3L165.43 0.3Q162.93 0.3 161.51-1.28 160.08-2.85 160.08-5.7ZM191.38-20.65L191.38-20.65Q191.38-16.5 187.98-13.43 184.58-10.35 179.88-10.1L179.88-10.1Q179.83-9.25 179.81-8.83 179.78-8.4 179.78-8.1L179.78-8.1Q179.78-5.8 180.56-4.85 181.33-3.9 183.38-3.9L183.38-3.9Q185.73-3.9 187.71-4.98 189.68-6.05 192.23-8.95L192.23-8.95 193.93-8.95Q191.03-4.25 187.63-1.98 184.23 0.3 180.18 0.3L180.18 0.3Q176.33 0.3 174.35-1.7 172.38-3.7 172.38-7.65L172.38-7.65Q172.38-10.5 173.28-13.7 174.18-16.9 175.68-19.4L175.68-19.4Q177.53-22.4 180.1-23.93 182.68-25.45 185.88-25.45L185.88-25.45Q188.63-25.45 190-24.28 191.38-23.1 191.38-20.65ZM186.28-22.8L186.28-22.8Q184.58-22.8 182.85-19.78 181.13-16.75 180.28-12.5L180.28-12.5Q183.18-12.7 185.35-15.18 187.53-17.65 187.53-20.75L187.53-20.75Q187.53-21.8 187.23-22.3 186.93-22.8 186.28-22.8ZM200.58-4.55L200.58-4.55Q201.83-4.55 202.83-5.6 203.83-6.65 204.48-8.65L204.48-8.65 207.98-25 215.18-25 210.23-1.8Q212.73-2.7 214.15-4.33 215.58-5.95 216.53-8.95L216.53-8.95 218.63-8.95Q217.48-5.15 215.35-2.85 213.23-0.55 209.78 0.4L209.78 0.4 209.03 4Q208.13 8.2 205.88 10.35 203.63 12.5 200.03 12.5L200.03 12.5Q197.48 12.5 195.95 11.2 194.43 9.9 194.43 7.65L194.43 7.65Q194.43 5.2 196.45 3.33 198.48 1.45 202.58 0.2L202.58 0.2 203.18-2.5Q201.93-1.1 200.45-0.4 198.98 0.3 197.18 0.3L197.18 0.3Q194.68 0.3 193.25-1.28 191.83-2.85 191.83-5.7L191.83-5.7Q191.83-6.35 191.93-7.18 192.03-8 192.23-8.95L192.23-8.95 195.63-25 202.83-25 199.23-8Q199.18-7.7 199.13-7.38 199.08-7.05 199.08-6.75L199.08-6.75Q199.08-5.7 199.45-5.13 199.83-4.55 200.58-4.55ZM201.78 4.15L202.08 2.7Q199.58 3.65 198.38 4.67 197.18 5.7 197.18 6.95L197.18 6.95Q197.18 7.6 197.68 8.1 198.18 8.6 198.88 8.6L198.88 8.6Q199.73 8.6 200.53 7.4 201.33 6.2 201.78 4.15L201.78 4.15Z" opacity="1" transform="matrix(1,0,0,1,0,0)" fill="#000000" class="wordmark-text-0" data-fill-palette-color="primary" id="text-0"></path></svg></g></svg></g></svg></g></svg></g></svg></g></svg></g></svg></g><defs></defs></svg><rect width="395.52" height="90.63244729605866" fill="none" stroke="none" visibility="hidden"></rect></g></svg></g></svg>